<svg id="Layer_1" data-name="Layer 1" xmlns="http://www.w3.org/2000/svg" viewBox="0 0 205.44 205.44"><defs><style>.cls-1{fill-rule:evenodd;}</style></defs><title>logo</title><path class="cls-1" d="M806.45,401.43a55.33,55.33,0,0,0-39.26-16.26v0a38.85,38.85,0,0,1-38.83-38.89h0a38.85,38.85,0,0,1,38.85-38.85h35.69V290.78H767.22a55.55,55.55,0,0,0-55.53,55.53h0a55.53,55.53,0,0,0,55.51,55.5v0a38.86,38.86,0,0,1,0,77.71H634V307.46h84.58a56.56,56.56,0,0,1,24.62-16.68H617.28V496.22H767.19a55.52,55.52,0,0,0,39.26-94.79Z" transform="translate(-617.28 -290.78)"/></svg>