<svg xmlns="http://www.w3.org/2000/svg" class="about-icon phone" viewBox="-5 0 48 60">
    <title>
        Phone
    </title>
    <g id="phone">
        <g id="main">
            <path d="M34,0H4A4,4,0,0,0,0,4V56a4,4,0,0,0,4,4H34a4,4,0,0,0,4-4V4A4,4,0,0,0,34,0Zm0,58H4a2,2,0,0,1-2-2V50H31a1,1,0,0,0,0-2H2V4A2,2,0,0,1,4,2H34a2,2,0,0,1,2,2v6H7a1,1,0,0,0,0,2H36V56A2,2,0,0,1,34,58Z" class="primary"/>
        </g>
        <g id="shine">
            <path d="M19,52a2,2,0,1,0,2,2A2,2,0,0,0,19,52ZM22,5H16a1,1,0,0,0,0,2h6a1,1,0,0,0,0-2ZM7.64,21.72l4.08-4.08a1,1,0,0,0-1.36-1.36L6.28,20.36a1,1,0,0,0,1.36,1.36Zm10.08-5.44a1,1,0,0,0-1.36,0L6.28,26.36a1,1,0,0,0,1.36,1.36L17.72,17.64A1,1,0,0,0,17.72,16.28Z" class="secondary"/>
        </g>
    </g>
</svg>
