<svg xmlns="http://www.w3.org/2000/svg" class="about-icon speed" viewBox="5 0 48 60">
    <title>
        Speedometer
    </title>
    <g id="gauge">
        <g id="main">
            <path d="M33,0h0a1,1,0,0,0,0,2h0A28.08,28.08,0,0,1,51.41,48H16a1,1,0,0,0,0,2H49.56A27.93,27.93,0,0,1,5.78,44H49a1,1,0,0,0,0-2H4.72A28.09,28.09,0,0,1,27,2h0a1,1,0,0,0,0-2h0a30,30,0,1,0,6,0ZM6,30a1,1,0,0,0,2,0,22,22,0,0,1,44,0,1,1,0,0,0,2,0A24,24,0,0,0,6,30Z" class="primary"/>
        </g>
        <g id="dial">
            <path d="M30,14a1,1,0,0,0-1,1V37a1,1,0,0,0,2,0V15A1,1,0,0,0,30,14Z" class="secondary"/>
        </g>
    </g>
</svg>
